<?xml version="1.0" standalone="no"?>
<!DOCTYPE svg PUBLIC "-//W3C//DTD SVG 20010904//EN"
 "http://www.w3.org/TR/2001/REC-SVG-20010904/DTD/svg10.dtd">
<svg version="1.0" xmlns="http://www.w3.org/2000/svg"
 width="600.000000pt" height="600.000000pt" viewBox="0 0 600.000000 600.000000"
 preserveAspectRatio="xMidYMid meet">
<metadata>
Created by potrace 1.11, written by Peter Selinger 2001-2013
</metadata>
<g transform="translate(0.000000,600.000000) scale(0.100000,-0.100000)"
fill="#000000" stroke="none">
<path d="M892 3273 l3 -2068 588 -3 587 -2 0 1565 0 1565 220 0 220 0 0 -1565
0 -1565 580 0 580 0 0 1130 0 1130 220 0 220 0 0 -1130 0 -1130 588 2 587 3 3
1633 2 1632 -807 0 -808 0 -442 435 -441 435 -951 0 -951 0 2 -2067z"/>
</g>
</svg>
